<?xml version="1.0" standalone="no"?>
<!DOCTYPE svg PUBLIC "-//W3C//DTD SVG 20010904//EN"
 "http://www.w3.org/TR/2001/REC-SVG-20010904/DTD/svg10.dtd">
<svg version="1.0" xmlns="http://www.w3.org/2000/svg"
 width="302.000000pt" height="299.000000pt" viewBox="0 0 302.000000 299.000000"
 preserveAspectRatio="xMidYMid meet">

<g transform="translate(0.000000,299.000000) scale(0.100000,-0.100000)"
fill="#000000" stroke="none">
<path d="M582 2914 c-21 -15 -22 -20 -22 -200 0 -171 1 -185 20 -204 19 -19
33 -20 395 -20 l376 0 -12 -21 c-6 -13 -9 -44 -6 -72 4 -43 10 -56 41 -84 22
-21 34 -39 29 -46 -5 -9 -4 -9 8 0 8 7 25 10 37 6 32 -8 107 24 127 54 29 44
35 82 21 124 l-14 39 373 0 c352 0 374 1 396 19 23 19 24 23 25 193 l1 173 -6
-173 c-5 -156 -8 -175 -25 -188 -16 -11 -87 -14 -395 -14 -353 1 -377 2 -398
19 -13 11 -23 25 -23 33 0 8 -3 9 -8 3 -4 -5 -29 -10 -57 -10 -36 0 -59 -6
-82 -23 -31 -22 -33 -22 -405 -22 -351 0 -376 1 -391 18 -25 27 -25 362 -1
386 14 14 108 16 884 16 l869 0 15 -22 c9 -12 16 -18 16 -12 0 6 -8 18 -18 27
-17 16 -93 17 -883 17 -766 0 -867 -2 -887 -16z m898 -414 c-30 -42 -39 -45
-66 -19 l-25 23 23 13 c13 7 38 12 56 13 l33 0 -21 -30z m100 -56 c9 -25 9
-43 0 -69 -14 -42 -19 -43 -50 -10 -22 24 -23 26 -6 44 17 19 17 20 -6 23 -24
3 -26 16 -7 66 l10 25 24 -23 c13 -13 29 -38 35 -56z m-174 15 c15 -16 16 -24
6 -39 -16 -27 -15 -30 8 -30 23 0 24 -5 9 -49 -14 -40 -34 -40 -59 2 -22 35
-26 87 -10 118 14 24 22 24 46 -2z m134 -139 c0 -11 -49 -30 -75 -30 -31 0
-31 5 1 47 l26 34 24 -22 c13 -12 24 -25 24 -29z"/>
<path d="M890 2710 l0 -100 65 0 c78 0 88 18 13 22 -52 3 -53 4 -56 36 -3 32
-3 32 42 32 25 0 48 5 51 10 4 6 -13 10 -45 10 l-51 0 3 33 c3 31 4 32 56 35
75 4 65 22 -13 22 l-65 0 0 -100z"/>
<path d="M1623 2752 c-66 -79 -67 -92 -8 -92 41 0 45 -2 45 -25 0 -14 5 -25
10 -25 6 0 10 10 10 21 0 12 8 28 18 35 16 12 16 13 0 14 -14 0 -18 12 -20 68
l-3 67 -52 -63z m34 -69 c-3 -2 -19 -3 -36 -1 l-30 3 32 41 32 42 3 -40 c2
-22 1 -42 -1 -45z"/>
<path d="M1783 2800 c-32 -13 -56 -66 -49 -108 18 -116 156 -103 156 15 0 36
-6 50 -29 74 -31 31 -42 33 -78 19z m62 -35 c40 -39 26 -119 -22 -131 -65 -17
-93 100 -36 144 23 17 30 15 58 -13z"/>
<path d="M1968 2748 c-61 -77 -61 -88 -3 -88 41 0 45 -2 45 -25 0 -14 5 -25
10 -25 6 0 10 11 10 24 0 13 6 27 13 30 10 5 10 7 0 12 -9 4 -13 28 -13 70 0
35 -3 64 -7 64 -5 -1 -29 -28 -55 -62z m39 -65 c-3 -2 -19 -3 -36 -1 l-30 3
32 41 32 42 3 -40 c2 -22 1 -42 -1 -45z"/>
<path d="M1265 2735 c-30 -30 -32 -64 -4 -99 41 -53 119 -21 119 48 0 25 -7
40 -26 55 -35 27 -59 26 -89 -4z m77 -12 c34 -31 13 -93 -32 -93 -20 0 -50 35
-50 57 0 16 36 53 52 53 6 0 20 -7 30 -17z"/>
<path d="M1462 2744 c-12 -8 -22 -10 -22 -5 0 6 -7 11 -15 11 -13 0 -15 -12
-13 -67 4 -84 25 -99 30 -21 2 44 7 55 26 63 12 5 22 15 22 22 0 16 -1 16 -28
-3z"/>
<path d="M1050 2679 c0 -52 3 -70 13 -67 7 3 13 26 15 57 3 46 6 53 30 63 22
9 24 12 9 15 -10 3 -24 -1 -32 -7 -11 -9 -15 -9 -15 -1 0 6 -4 11 -10 11 -6 0
-10 -30 -10 -71z"/>
<path d="M1150 2679 c0 -52 3 -70 13 -67 7 3 13 26 15 57 3 46 6 53 30 63 22
9 24 12 9 15 -10 3 -24 -1 -32 -7 -11 -9 -15 -9 -15 -1 0 6 -4 11 -10 11 -6 0
-10 -30 -10 -71z"/>
<path d="M2188 2324 c-28 -15 -38 -34 -18 -34 7 0 7 -6 0 -19 -5 -11 -10 -32
-9 -48 0 -27 1 -27 11 -5 6 12 15 22 20 22 5 0 6 5 2 12 -5 8 0 9 17 4 13 -4
41 -10 61 -13 34 -5 37 -8 40 -42 3 -31 7 -36 28 -36 35 0 41 -41 8 -54 -18
-8 -19 -10 -5 -10 10 -1 32 12 48 28 36 36 40 95 9 134 -11 14 -20 29 -19 34
1 4 1 15 0 23 -1 12 -3 12 -10 2 -6 -10 -10 -10 -21 3 -17 20 -125 20 -162 -1z"/>
<path d="M676 2179 c-48 -11 -69 -27 -61 -47 3 -8 -3 -21 -14 -28 -25 -18 -31
-45 -15 -80 13 -28 13 -28 9 16 l-5 45 15 -50 c10 -34 11 -61 6 -87 -9 -38 -9
-38 30 -48 22 -6 44 -8 49 -5 19 12 10 54 -15 71 -33 21 -32 44 1 44 23 0 25
3 19 29 -6 27 -2 31 49 59 l55 30 15 -23 c11 -16 12 -25 4 -33 -8 -8 -7 -13 5
-18 11 -4 17 -18 17 -41 0 -48 -16 -72 -57 -90 -25 -10 -32 -18 -25 -25 15
-15 72 -2 106 25 27 22 28 26 18 57 -7 18 -12 48 -12 67 0 101 -84 158 -194
132z"/>
<path d="M739 2073 c-13 -16 -12 -17 4 -4 9 7 17 15 17 17 0 8 -8 3 -21 -13z"/>
<path d="M2142 2053 c-7 -3 -17 -16 -22 -29 -8 -19 -17 -24 -44 -24 -47 0 -56
-19 -56 -125 0 -67 3 -87 15 -91 22 -9 19 -71 -6 -106 l-22 -30 52 -52 c28
-28 51 -61 51 -72 0 -11 -16 -35 -35 -54 -19 -19 -35 -44 -35 -56 0 -12 -11
-77 -25 -144 -14 -68 -43 -227 -66 -354 -51 -290 -108 -568 -120 -580 -16 -17
-10 -45 12 -56 11 -6 38 -18 59 -25 40 -14 40 -14 46 13 3 15 28 90 56 167 28
77 65 199 83 270 18 72 49 173 68 225 40 111 40 112 57 -99 6 -74 22 -226 35
-338 14 -112 24 -207 24 -211 -6 -38 1 -42 67 -42 l66 0 -5 33 c-8 44 -8 524
-1 836 l7 254 -26 -7 c-21 -5 -30 -1 -43 19 -16 24 -16 27 1 45 10 11 26 20
36 20 12 0 25 16 39 48 18 38 21 62 18 128 l-3 82 53 56 c28 31 52 62 52 69 0
7 -13 39 -29 72 -37 78 -119 155 -165 155 -17 0 -18 -5 -13 -45 6 -43 5 -46
-26 -65 -45 -28 -79 -25 -109 8 -25 28 -25 29 -4 38 14 6 22 20 24 42 3 29 1
32 -25 31 -15 0 -34 -3 -41 -6z"/>
<path d="M574 1838 l-35 -33 24 -47 c21 -42 23 -54 17 -135 -6 -85 -5 -89 22
-130 33 -50 41 -55 93 -68 47 -12 60 -46 25 -65 -19 -10 -30 -4 -89 44 -38 31
-71 56 -74 56 -3 0 -8 -18 -12 -41 -8 -44 -9 -46 -77 -90 -127 -82 -170 -265
-109 -461 l22 -67 -35 -68 c-18 -37 -64 -137 -100 -222 -63 -146 -66 -155 -50
-172 34 -38 48 -24 149 142 59 98 101 157 107 151 19 -19 90 -198 95 -242 6
-53 -5 -67 -64 -80 -32 -8 -39 -6 -51 12 -12 17 -22 19 -58 15 -24 -2 -51 -10
-59 -17 -22 -18 -18 -57 7 -74 33 -23 170 -21 224 3 106 48 107 139 4 360 -27
59 -50 113 -50 119 0 6 16 38 36 71 20 34 58 127 84 209 27 81 51 140 53 132
3 -8 13 -64 23 -125 13 -86 17 -161 15 -346 -2 -130 1 -284 5 -342 l7 -107 36
0 37 0 13 163 c7 89 19 216 27 282 24 195 27 318 11 490 -9 88 -13 163 -11
167 3 5 24 8 47 8 40 0 143 23 154 34 3 3 0 19 -7 37 -12 28 -16 30 -44 24
-84 -19 -113 -24 -138 -25 -26 0 -28 3 -28 37 0 20 12 80 26 133 27 99 36 124
56 152 18 25 -5 92 -37 106 -38 17 -43 15 -59 -22 -21 -49 -47 -54 -94 -16
-22 17 -45 42 -52 56 -18 33 -43 30 -86 -8z m-104 -745 c-40 -196 -40 -196
-52 -158 -15 50 -11 178 7 220 18 45 64 109 72 101 3 -3 -9 -76 -27 -163z"/>
<path d="M1190 1652 c-25 -12 -36 -25 -37 -42 -1 -14 19 -83 45 -155 54 -145
59 -149 136 -122 65 22 65 30 11 178 -26 74 -52 140 -58 147 -13 17 -55 14
-97 -6z"/>
<path d="M1716 1564 c-20 -19 -20 -38 -1 -54 23 -19 19 -30 -27 -77 -33 -34
-39 -46 -30 -55 9 -9 21 -3 55 30 23 23 47 42 53 42 5 0 28 -18 49 -40 l39
-40 -42 -43 c-23 -23 -42 -48 -42 -54 0 -28 23 -21 69 22 42 39 50 43 61 30
25 -30 80 -9 80 31 0 16 -215 224 -231 224 -10 0 -25 -7 -33 -16z"/>
<path d="M2505 1446 l-36 -44 -6 -154 c-6 -185 11 -549 32 -673 32 -187 90
-311 160 -347 71 -37 287 -19 324 26 19 22 9 59 -19 73 -32 16 -122 17 -138 1
-7 -7 -12 -20 -12 -30 0 -21 -42 -24 -102 -8 -33 10 -41 19 -73 83 -72 145
-99 391 -93 845 1 149 2 272 1 272 -1 0 -18 -20 -38 -44z"/>
<path d="M121 291 l-24 -18 49 -66 c52 -71 81 -87 69 -39 -4 15 -8 41 -10 59
-4 35 -32 83 -49 83 -6 0 -22 -9 -35 -19z"/>
<path d="M1747 203 c-32 -3 -47 -8 -44 -16 4 -13 177 -87 188 -81 4 2 9 18 11
34 4 28 1 33 -31 46 -45 19 -65 22 -124 17z"/>
<path d="M722 133 l3 -38 75 -3 c41 -1 81 2 89 7 17 11 6 31 -18 31 -10 0 -30
9 -44 20 -16 13 -40 20 -67 20 l-41 0 3 -37z"/>
<path d="M2271 146 c-7 -8 -26 -18 -42 -21 -17 -4 -28 -12 -26 -18 6 -18 207
-22 207 -5 -1 50 -11 58 -70 58 -38 0 -62 -5 -69 -14z"/>
</g>
</svg>
