<svg width="73" height="46" viewBox="0 0 73 46" fill="none" xmlns="http://www.w3.org/2000/svg">
<path d="M30.7329 43.3077C30.7329 43.8113 30.5597 44.1943 30.2513 44.3723C29.9429 44.5504 29.5246 44.5089 29.0884 44.2571L2.77646 29.0659C2.34031 28.8141 1.92202 28.3725 1.61362 27.8384C1.30522 27.3042 1.13196 26.7212 1.13196 26.2175V6.26007C1.13178 5.9706 1.18889 5.71798 1.2989 5.5215C1.40892 5.32503 1.56893 5.18989 1.76673 5.12642L14.9227 0.905158C15.2114 0.812524 15.5667 0.876875 15.9324 1.08803C16.2982 1.29919 16.6535 1.64511 16.9422 2.07109L30.0982 21.4836C30.296 21.7754 30.456 22.0954 30.566 22.4189C30.676 22.7424 30.7331 23.0609 30.7329 23.3502V43.3077Z" fill="#2563EB"/>
<path d="M35.4553 0.904151C35.7439 0.811777 36.0995 0.87719 36.465 1.08821C36.8305 1.2994 37.186 1.645 37.4746 2.07078L50.6297 21.4826C50.8273 21.7743 50.9879 22.0946 51.0979 22.4178C51.208 22.7414 51.2659 23.0611 51.2658 23.3503V43.3076C51.2657 43.8107 51.0919 44.1932 50.784 44.3714C50.4756 44.5494 50.0562 44.5082 49.62 44.2563L37.2107 37.0914V23.1866C37.2109 22.8007 37.1353 22.3756 36.9887 21.9442C36.8421 21.5127 36.6284 21.0856 36.3648 20.6963L25.1898 4.19698L35.4553 0.904151Z" fill="#1E40AF"/>
<path d="M55.9875 0.90453C56.2761 0.811986 56.6315 0.876127 56.9971 1.08724C57.3627 1.29842 57.7182 1.64401 58.0068 2.06981L71.1618 21.4817C71.3596 21.7735 71.5201 22.0947 71.6301 22.4182C71.74 22.7416 71.7981 23.0602 71.7979 23.3494V43.3066C71.7979 43.8098 71.6241 44.1922 71.3161 44.3704C71.0077 44.5485 70.5883 44.5072 70.1522 44.2554L57.7428 37.0905V23.1856C57.7431 22.7997 57.6675 22.3747 57.5209 21.9432C57.3742 21.5117 57.1606 21.0846 56.897 20.6953L45.7219 4.19736L55.9875 0.90453Z" fill="#172554"/>
</svg>
