<svg width="202" height="46" viewBox="0 0 202 46" fill="none" xmlns="http://www.w3.org/2000/svg">
<path d="M30.7329 43.3077C30.7329 43.8113 30.5597 44.1943 30.2513 44.3723C29.9429 44.5504 29.5246 44.5089 29.0884 44.2571L2.77646 29.0659C2.34031 28.8141 1.92202 28.3725 1.61362 27.8384C1.30522 27.3042 1.13196 26.7212 1.13196 26.2175V6.26007C1.13178 5.9706 1.18889 5.71798 1.2989 5.5215C1.40892 5.32503 1.56893 5.18989 1.76673 5.12642L14.9227 0.905158C15.2114 0.812524 15.5667 0.876875 15.9324 1.08803C16.2982 1.29919 16.6535 1.64511 16.9422 2.07109L30.0982 21.4836C30.296 21.7754 30.456 22.0954 30.566 22.4189C30.676 22.7424 30.7331 23.0609 30.7329 23.3502V43.3077Z" fill="#2563EB"/>
<path d="M35.4553 0.904151C35.7439 0.811777 36.0995 0.87719 36.465 1.08821C36.8305 1.2994 37.186 1.645 37.4746 2.07078L50.6297 21.4826C50.8273 21.7743 50.9879 22.0946 51.0979 22.4178C51.208 22.7414 51.2659 23.0611 51.2658 23.3503V43.3076C51.2657 43.8107 51.0919 44.1932 50.784 44.3714C50.4756 44.5494 50.0562 44.5082 49.62 44.2563L37.2107 37.0914V23.1866C37.2109 22.8007 37.1353 22.3756 36.9887 21.9442C36.8421 21.5127 36.6284 21.0856 36.3648 20.6963L25.1898 4.19698L35.4553 0.904151Z" fill="#1E40AF"/>
<path d="M55.9875 0.90453C56.2761 0.811986 56.6315 0.876127 56.9971 1.08724C57.3627 1.29842 57.7182 1.64401 58.0068 2.06981L71.1618 21.4817C71.3596 21.7735 71.5201 22.0947 71.6301 22.4182C71.74 22.7416 71.7981 23.0602 71.7979 23.3494V43.3066C71.7979 43.8098 71.6241 44.1922 71.3161 44.3704C71.0077 44.5485 70.5883 44.5072 70.1522 44.2554L57.7428 37.0905V23.1856C57.7431 22.7997 57.6675 22.3747 57.5209 21.9432C57.3742 21.5117 57.1606 21.0846 56.897 20.6953L45.7219 4.19736L55.9875 0.90453Z" fill="#172554"/>
<path d="M82.7113 34V12.2233H93.16C95.6623 12.2233 97.4996 12.8883 98.6718 14.2184C99.8441 15.5259 100.43 17.2955 100.43 19.5273C100.43 20.9926 100.047 22.255 99.2805 23.3145C98.5366 24.3741 97.477 25.1405 96.1019 25.6139C96.4626 25.907 96.7444 26.2226 96.9473 26.5608C97.1727 26.8989 97.3981 27.3498 97.6236 27.9133L100.261 34H95.5271L92.9571 28.15C92.7317 27.6541 92.4837 27.3047 92.2132 27.1018C91.9427 26.8989 91.4918 26.7975 90.8606 26.7975H87.2763V34H82.7113ZM87.2763 23.0102H91.9765C93.1713 23.0102 94.1068 22.751 94.7831 22.2325C95.4594 21.6914 95.7976 20.7897 95.7976 19.5273C95.7976 18.31 95.5045 17.4195 94.9184 16.8559C94.3323 16.2923 93.4418 16.0106 92.247 16.0106H87.2763V23.0102ZM111.471 34.3381C108.698 34.3381 106.5 33.6506 104.877 32.2754C103.254 30.8778 102.443 28.77 102.443 25.9521C102.443 23.4047 103.119 21.3871 104.472 19.8992C105.847 18.3889 107.887 17.6337 110.592 17.6337C113.072 17.6337 114.965 18.2874 116.273 19.5949C117.603 20.8799 118.268 22.5706 118.268 24.6671V27.5752H106.67C106.918 28.8602 107.504 29.7393 108.428 30.2127C109.375 30.6862 110.705 30.9229 112.418 30.9229C113.275 30.9229 114.143 30.844 115.022 30.6862C115.924 30.5284 116.69 30.3255 117.321 30.0775V33.3237C116.577 33.6619 115.709 33.9098 114.717 34.0676C113.726 34.248 112.643 34.3381 111.471 34.3381ZM106.67 24.7686H114.278V23.8894C114.278 22.9651 114.007 22.2437 113.466 21.7252C112.925 21.1842 112.012 20.9137 110.727 20.9137C109.217 20.9137 108.157 21.218 107.549 21.8267C106.963 22.4354 106.67 23.416 106.67 24.7686ZM121.446 34V17.9718H125.673L125.842 19.4935C126.496 18.9975 127.319 18.5692 128.311 18.2085C129.325 17.8253 130.385 17.6337 131.489 17.6337C133.608 17.6337 135.153 18.1296 136.122 19.1215C137.091 20.1134 137.576 21.6463 137.576 23.7203V34H133.011V23.957C133.011 22.8749 132.786 22.1085 132.335 21.6576C131.906 21.2068 131.095 20.9813 129.9 20.9813C129.201 20.9813 128.491 21.1391 127.77 21.4547C127.071 21.7703 126.485 22.1648 126.011 22.6382V34H121.446ZM147.65 34.3381C145.801 34.3381 144.426 33.8535 143.524 32.8841C142.645 31.9148 142.206 30.596 142.206 28.9278V21.4885H139.94V17.9718H142.206V14.5227L146.771 13.1701V17.9718H150.828L150.558 21.4885H146.771V28.6235C146.771 29.5026 146.974 30.1113 147.379 30.4495C147.785 30.7651 148.416 30.9229 149.273 30.9229C149.904 30.9229 150.558 30.8101 151.234 30.5847V33.7295C150.738 33.9324 150.197 34.0789 149.611 34.1691C149.025 34.2818 148.371 34.3381 147.65 34.3381ZM158.615 34.3381C157.601 34.3381 156.654 34.1578 155.775 33.7971C154.918 33.4139 154.219 32.8616 153.678 32.1402C153.16 31.3963 152.901 30.472 152.901 29.3674C152.901 27.7894 153.453 26.5269 154.558 25.5801C155.685 24.6333 157.342 24.1599 159.528 24.1599H164.262V23.7203C164.262 22.7284 163.981 22.0296 163.417 21.6238C162.876 21.218 161.771 21.0151 160.103 21.0151C158.277 21.0151 156.519 21.2969 154.828 21.8605V18.6481C155.572 18.355 156.474 18.1183 157.533 17.938C158.615 17.7351 159.788 17.6337 161.05 17.6337C163.462 17.6337 165.322 18.1296 166.629 19.1215C167.959 20.0909 168.625 21.6576 168.625 23.8218V34H164.668L164.431 32.546C163.8 33.1095 163.023 33.5491 162.098 33.8647C161.174 34.1803 160.013 34.3381 158.615 34.3381ZM159.866 31.3286C160.881 31.3286 161.76 31.1596 162.504 30.8214C163.248 30.4833 163.834 30.0549 164.262 29.5365V27.0003H159.63C157.849 27.0003 156.958 27.733 156.958 29.1983C156.958 30.6185 157.928 31.3286 159.866 31.3286ZM172.301 34V17.9718H176.527L176.73 19.6287C177.452 19.1779 178.342 18.7721 179.402 18.4114C180.484 18.0282 181.543 17.7689 182.58 17.6337V21.0828C181.972 21.1729 181.307 21.3082 180.585 21.4885C179.864 21.6689 179.176 21.8718 178.522 22.0972C177.869 22.3226 177.316 22.5593 176.866 22.8073V34H172.301ZM187.919 39.9514C187.22 39.9514 186.6 39.9063 186.059 39.8161C185.518 39.7485 184.989 39.6132 184.47 39.4104V36.198C184.853 36.3332 185.203 36.4234 185.518 36.4685C185.857 36.5136 186.195 36.5361 186.533 36.5361C187.457 36.5361 188.167 36.3219 188.663 35.8936C189.182 35.4653 189.7 34.7439 190.219 33.7295L183.05 17.9718H187.818L192.518 28.8602L197.184 17.9718H201.919L195.595 32.8841C195.009 34.2818 194.367 35.5104 193.668 36.5699C192.991 37.652 192.191 38.4861 191.267 39.0722C190.343 39.6583 189.227 39.9514 187.919 39.9514Z" fill="#0B1229"/>
</svg>
